<?xml version="1.0" encoding="utf-8"?>
<svg xmlns="http://www.w3.org/2000/svg" fill="none" height="229" viewBox="0 0 477 229" width="477">
  <rect fill="#fce94e" height="161.786" rx="18.8571" transform="matrix(.70710678 .70710678 -.70710678 .70710678 33.68272 -81.31728)" width="161.786" x="115"/>
  <g fill="#000">
    <path clip-rule="evenodd" d="m63.4208 96.6476c.2317-4.3065 3.7943-7.6754 8.1058-7.6754h59.6914c3.043 0 5.884 1.5242 7.565 4.0574l9.435 12.7784 19.325 1.581c.006.001.012.001.018.002 5.08.455 9.008 4.655 9.114 9.754l.2 10.627v.002c.093 4.536-3.562 8.258-8.097 8.258v-4.728c1.892 0 3.409-1.551 3.37-3.434l-.2-10.627v-.001c-.056-2.682-2.121-4.898-4.801-5.142-.002 0-.005 0-.008-.001l-20.377-1.667c-.68-.056-1.303-.403-1.708-.952l-10.112-13.6936c-.028-.037-.054-.0747-.079-.1133-.802-1.2304-2.173-1.9736-3.645-1.9736h-59.6914c-1.804 0-3.2887 1.4087-3.3853 3.2018l-.726 13.5187v17.52c0 1.855 1.5067 3.364 3.3711 3.364h1.7399v4.728h-1.7399c-4.47 0-8.0984-3.621-8.0984-8.092v-17.584c0-.042.0011-.084.0034-.126zm37.0032 34.6564h39.639v4.728h-39.639z" fill-rule="evenodd"/>
    <path clip-rule="evenodd" d="m73.3373 84.7431v4.1522h52.8607v-4.1522zm-.527-4.7431c-2.3285 0-4.2161 1.8876-4.2161 4.2161v5.2062c0 2.3285 1.8876 4.2161 4.2161 4.2161h53.9147c2.328 0 4.216-1.8876 4.216-4.2161v-5.2062c0-2.3285-1.888-4.2161-4.216-4.2161z" fill-rule="evenodd"/>
    <path clip-rule="evenodd" d="m54.0005 104.762c0-3.638 2.9494-6.5872 6.5876-6.5872h5.3485v4.7432h-5.3485c-1.0187 0-1.8445.826-1.8445 1.844v17.959c0 1.019.8258 1.845 1.8445 1.845h4.8171v4.743h-4.8171c-3.6382 0-6.5876-2.949-6.5876-6.588z" fill-rule="evenodd"/>
    <path clip-rule="evenodd" d="m81.981 109.757v-18.4211h4.743v18.4211z" fill-rule="evenodd"/>
    <path clip-rule="evenodd" d="m109.442 109.757v-18.4211h4.743v18.4211z" fill-rule="evenodd"/>
    <path clip-rule="evenodd" d="m85.6467 144.782c6.1123 0 11.0672-4.955 11.0672-11.067 0-6.113-4.9549-11.068-11.0672-11.068-6.1122 0-11.0672 4.955-11.0672 11.068 0 6.112 4.955 11.067 11.0672 11.067zm0 4.743c8.7318 0 15.8103-7.079 15.8103-15.81 0-8.732-7.0785-15.811-15.8103-15.811s-15.8103 7.079-15.8103 15.811c0 8.731 7.0785 15.81 15.8103 15.81z" fill-rule="evenodd"/>
    <path clip-rule="evenodd" d="m85.6428 131.87c-1.0187 0-1.8445.826-1.8445 1.845 0 1.018.8258 1.844 1.8445 1.844s1.8445-.826 1.8445-1.844c0-1.019-.8258-1.845-1.8445-1.845zm-6.5876 1.845c0-3.639 2.9494-6.588 6.5876-6.588s6.5876 2.949 6.5876 6.588c0 3.638-2.9494 6.587-6.5876 6.587s-6.5876-2.949-6.5876-6.587z" fill-rule="evenodd"/>
    <path clip-rule="evenodd" d="m153.483 144.782c6.112 0 11.067-4.955 11.067-11.067 0-6.113-4.955-11.068-11.067-11.068-6.113 0-11.068 4.955-11.068 11.068 0 6.112 4.955 11.067 11.068 11.067zm0 4.743c8.731 0 15.81-7.079 15.81-15.81 0-8.732-7.079-15.811-15.81-15.811-8.732 0-15.811 7.079-15.811 15.811 0 8.731 7.079 15.81 15.811 15.81z" fill-rule="evenodd"/>
    <path clip-rule="evenodd" d="m153.483 131.87c-1.019 0-1.845.826-1.845 1.845 0 1.018.826 1.844 1.845 1.844 1.018 0 1.844-.826 1.844-1.844 0-1.019-.826-1.845-1.844-1.845zm-6.588 1.845c0-3.639 2.949-6.588 6.588-6.588 3.638 0 6.587 2.949 6.587 6.588 0 3.638-2.949 6.587-6.587 6.587-3.639 0-6.588-2.949-6.588-6.587z" fill-rule="evenodd"/>
    <path clip-rule="evenodd" d="m149.536 110.703h-85.1957v-4.727h85.1957z" fill-rule="evenodd"/>
    <path d="m283.599 110.227c-6.633 0-11.901-2.036-15.805-6.108-3.862-4.114-5.794-9.9492-5.794-17.5055 0-7.4724 1.869-13.2655 5.605-17.3795 3.778-4.156 9.046-6.234 15.805-6.234 3.107 0 5.709.1889 7.808.5667 1.008.1679 1.847.6717 2.519 1.5113s1.008 1.7841 1.008 2.8336v.5038c0 .8815-.378 1.5742-1.134 2.0779-.714.5038-1.49.6507-2.33.4408-2.057-.5457-4.366-.8186-6.926-.8186-4.156 0-7.431 1.4273-9.824 4.2819-2.35 2.8547-3.526 6.9267-3.526 12.2161 0 5.2474 1.218 9.3195 3.652 12.2161 2.477 2.8544 5.773 4.2814 9.887 4.2814 2.77 0 5.142-.251 7.115-.755.84-.21 1.616-.063 2.33.441.756.503 1.133 1.196 1.133 2.078v.44c0 1.05-.335 1.994-1.007 2.834-.63.798-1.469 1.28-2.519 1.448-2.393.42-5.058.63-7.997.63z"/>
    <path d="m317.037 93.855c-6.003 0-9.004 1.8471-9.004 5.5413 0 1.3437.377 2.4347 1.133 3.2747.798.839 1.805 1.259 3.023 1.259 2.392 0 4.323-.735 5.793-2.204 1.469-1.511 2.204-3.5681 2.204-6.1709v-1.1334c0-.3778-.189-.5667-.567-.5667zm-7.115 16.372c-2.855 0-5.227-.924-7.116-2.771-1.847-1.889-2.771-4.324-2.771-7.304 0-3.6523 1.386-6.4859 4.156-8.501 2.813-2.015 7.095-3.0225 12.846-3.0225h2.582c.378 0 .567-.1889.567-.5667v-.5038c0-1.931-.462-3.2744-1.386-4.03-.923-.7976-2.56-1.1964-4.911-1.1964-2.435 0-5.416.4408-8.942 1.3223-.756.2099-1.448.084-2.078-.3778-.63-.5037-.944-1.1544-.944-1.952 0-.9656.293-1.8261.881-2.5818.588-.7976 1.343-1.2803 2.267-1.4483 3.19-.7136 6.192-1.0704 9.005-1.0704 5.373 0 9.13.9655 11.271 2.8965 2.141 1.9311 3.212 5.3105 3.212 10.1381v16.7498c0 .966-.357 1.805-1.071 2.519-.672.713-1.49 1.07-2.456 1.07h-.692c-1.008 0-1.868-.336-2.582-1.007-.714-.714-1.092-1.574-1.134-2.582v-.882c0-.041-.021-.062-.063-.062-.084 0-.125.021-.125.062-2.561 3.401-6.067 5.101-10.516 5.101z"/>
    <path d="m338.544 109.597c-.965 0-1.805-.357-2.519-1.07-.671-.714-1.007-1.553-1.007-2.519v-25.5655c0-.9655.336-1.8051 1.007-2.5188.714-.7136 1.554-1.0704 2.519-1.0704h.882c.965 0 1.784.3358 2.456 1.0075.713.6716 1.091 1.4902 1.133 2.4558v.4408c0 .0419.021.0629.063.0629.084 0 .126-.021.126-.0629 2.477-3.0226 5.268-4.5338 8.375-4.5338 1.889 0 3.4.3568 4.534 1.0704 1.175.7137 2.204 1.9731 3.085 3.7782 0 .042.042.063.126.063.042 0 .084-.021.126-.063 2.645-3.2324 5.625-4.8486 8.942-4.8486 3.484 0 5.982.9445 7.493 2.8336 1.553 1.8891 2.33 5.1425 2.33 9.7602v17.1906c0 .966-.357 1.805-1.071 2.519-.671.713-1.49 1.07-2.455 1.07h-1.071c-.965 0-1.805-.357-2.519-1.07-.713-.714-1.07-1.553-1.07-2.519v-15.9312c0-3.0645-.294-5.0795-.882-6.045-.587-.9656-1.721-1.4483-3.4-1.4483-1.092 0-2.183.5037-3.275 1.5112-1.091 1.0075-1.637 2.015-1.637 3.0226v18.8907c0 .966-.357 1.805-1.07 2.519-.714.713-1.553 1.07-2.519 1.07h-1.07c-.966 0-1.806-.357-2.519-1.07-.672-.714-1.008-1.553-1.008-2.519v-15.9312c0-3.0225-.315-5.0165-.944-5.9821-.588-1.0075-1.721-1.5112-3.401-1.5112-1.091 0-2.183.5037-3.274 1.5112s-1.637 2.015-1.637 3.0226v18.8907c0 .966-.357 1.805-1.071 2.519-.713.713-1.553 1.07-2.518 1.07z"/>
    <path d="m393.034 88.9434v8.5638c0 1.6792.713 3.1698 2.141 4.4708 1.469 1.301 3.169 1.952 5.1 1.952 2.225 0 3.988-.902 5.29-2.708 1.301-1.8047 1.952-4.4704 1.952-7.9967 0-7.1365-2.414-10.7048-7.242-10.7048-1.931 0-3.631.6507-5.1 1.952-1.428 1.3014-2.141 2.7917-2.141 4.4709zm-4.723 34.5076c-.965 0-1.805-.357-2.519-1.071-.713-.714-1.07-1.553-1.07-2.519v-39.4185c0-.9655.357-1.8051 1.07-2.5188.714-.7136 1.554-1.0704 2.519-1.0704h.756c1.007 0 1.868.3568 2.581 1.0704.714.6717 1.092 1.5113 1.134 2.5188v.4408c0 .042.021.063.063.063s.084-.021.126-.063c1.511-1.6792 3.022-2.8756 4.534-3.5893 1.511-.7136 3.274-1.0704 5.289-1.0704 3.946 0 7.095 1.4902 9.445 4.4708 2.351 2.9386 3.527 7.1155 3.527 12.5309 0 5.2474-1.239 9.4037-3.715 12.4677-2.435 3.023-5.521 4.534-9.257 4.534-3.652 0-6.822-1.322-9.508-3.967-.042-.042-.084-.063-.126-.063s-.063.021-.063.063v13.601c0 .966-.357 1.805-1.071 2.519-.671.714-1.49 1.071-2.456 1.071z"/>
    <path d="m434.616 82.0797c-2.141 0-3.799.6087-4.975 1.8261-1.133 1.1754-1.847 3.0855-2.141 5.7302 0 .3359.168.5038.504.5038h12.342c.336 0 .504-.1679.504-.5038-.168-5.0375-2.246-7.5563-6.234-7.5563zm1.574 28.1473c-5.499 0-9.739-1.427-12.72-4.282-2.938-2.897-4.408-7.1364-4.408-12.7197 0-5.5413 1.323-9.7603 3.967-12.6569 2.645-2.8965 6.465-4.3448 11.461-4.3448 9.319 0 14.105 5.2894 14.357 15.8682.042 1.0075-.315 1.8471-1.071 2.5188-.755.6717-1.637 1.0075-2.644 1.0075h-17.191c-.378 0-.525.1889-.441.5667.294 2.8127 1.218 4.8692 2.771 6.1712 1.595 1.259 3.904 1.889 6.926 1.889 1.889 0 3.988-.315 6.297-.945.756-.21 1.449-.084 2.078.378.672.462 1.008 1.092 1.008 1.889 0 .966-.294 1.826-.882 2.582-.545.714-1.28 1.154-2.204 1.322-2.351.504-4.785.756-7.304.756z"/>
    <path d="m457.341 109.597c-.965 0-1.805-.357-2.519-1.07-.713-.714-1.07-1.553-1.07-2.519v-25.5655c0-.9655.357-1.8051 1.07-2.5188.714-.7136 1.554-1.0704 2.519-1.0704h1.26c.965 0 1.805.3568 2.518 1.0704.714.7137 1.071 1.5533 1.071 2.5188v2.6447c0 .042.021.063.063.063.084 0 .126-.021.126-.063 1.217-1.6792 2.812-3.0435 4.785-4.093 1.973-1.0915 4.135-1.7631 6.486-2.015.882-.084 1.637.2099 2.267.8816.63.6297.945 1.3853.945 2.2669 0 .8815-.315 1.6372-.945 2.2669-.63.6296-1.385.9865-2.267 1.0704-7.43.5877-11.145 4.3659-11.145 11.3345v11.2085c0 .966-.357 1.805-1.071 2.519-.713.713-1.553 1.07-2.519 1.07z"/>
    <path d="m268.423 165.597c-.965 0-1.805-.357-2.518-1.07-.714-.714-1.071-1.553-1.071-2.519v-38.789c0-.966.357-1.805 1.071-2.519.713-.713 1.553-1.07 2.518-1.07h1.575c1.091 0 2.099.294 3.022.881.924.588 1.595 1.365 2.015 2.33l11.02 23.803c0 .042.021.063.063.063s.063-.021.063-.063l11.019-23.803c.42-.965 1.092-1.742 2.015-2.33.924-.587 1.931-.881 3.023-.881h1.826c.966 0 1.805.357 2.519 1.07.713.714 1.07 1.553 1.07 2.519v38.789c0 .966-.357 1.805-1.07 2.519-.714.713-1.553 1.07-2.519 1.07h-1.385c-.966 0-1.805-.357-2.519-1.07-.714-.714-1.071-1.553-1.071-2.519v-27.392c0-.042-.021-.063-.063-.063s-.063.021-.063.063l-7.556 16.184c-.462.965-1.175 1.763-2.141 2.392-.923.588-1.91.882-2.959.882h-.378c-1.05 0-2.057-.294-3.023-.882-.923-.629-1.616-1.427-2.078-2.392l-7.556-16.184c0-.042-.021-.063-.063-.063s-.063.021-.063.063v27.392c0 .966-.357 1.805-1.07 2.519-.714.713-1.554 1.07-2.519 1.07z"/>
    <path d="m330.504 149.855c-6.003 0-9.004 1.847-9.004 5.541 0 1.344.377 2.435 1.133 3.275.798.839 1.805 1.259 3.023 1.259 2.392 0 4.323-.735 5.793-2.204 1.469-1.511 2.204-3.568 2.204-6.171v-1.133c0-.378-.189-.567-.567-.567zm-7.115 16.372c-2.855 0-5.227-.924-7.116-2.771-1.847-1.889-2.77-4.324-2.77-7.304 0-3.652 1.385-6.486 4.155-8.501 2.813-2.015 7.095-3.022 12.846-3.022h2.582c.378 0 .567-.189.567-.567v-.504c0-1.931-.462-3.274-1.386-4.03-.923-.798-2.56-1.196-4.911-1.196-2.435 0-5.416.44-8.942 1.322-.756.21-1.448.084-2.078-.378-.63-.504-.944-1.154-.944-1.952 0-.965.293-1.826.881-2.582.588-.797 1.344-1.28 2.267-1.448 3.191-.714 6.192-1.07 9.005-1.07 5.373 0 9.13.965 11.271 2.896s3.212 5.311 3.212 10.138v16.75c0 .966-.357 1.805-1.071 2.519-.672.713-1.49 1.07-2.456 1.07h-.692c-1.008 0-1.868-.336-2.582-1.007-.714-.714-1.092-1.574-1.134-2.582v-.882c0-.041-.021-.062-.062-.062-.084 0-.126.021-.126.062-2.561 3.401-6.066 5.101-10.516 5.101z"/>
    <path d="m348.027 140.221c-.84 0-1.553-.294-2.141-.882-.588-.63-.882-1.364-.882-2.204 0-.839.294-1.553.882-2.141s1.301-.881 2.141-.881h3.022c.378 0 .567-.189.567-.567v-7.808c0-.966.336-1.805 1.008-2.519.713-.714 1.553-1.071 2.518-1.071h1.26c.965 0 1.805.357 2.519 1.071.713.714 1.07 1.553 1.07 2.519v7.808c0 .378.189.567.567.567h7.178c.84 0 1.554.293 2.141.881.63.588.945 1.302.945 2.141 0 .84-.315 1.574-.945 2.204-.587.588-1.301.882-2.141.882h-7.178c-.378 0-.567.168-.567.503v12.72c0 2.729.294 4.492.882 5.29.587.797 1.805 1.196 3.652 1.196 1.007 0 1.763-.042 2.267-.126.839-.084 1.574.105 2.204.567.629.462.944 1.091.944 1.889 0 .923-.315 1.763-.944 2.519-.588.713-1.323 1.112-2.204 1.196-1.847.168-3.233.252-4.156.252-4.072 0-6.927-.861-8.564-2.582-1.637-1.763-2.456-4.89-2.456-9.382v-13.539c0-.335-.189-.503-.567-.503z"/>
    <path d="m390.385 138.08c-2.141 0-3.8.608-4.975 1.826-1.133 1.175-1.847 3.085-2.141 5.73 0 .336.168.504.504.504h12.342c.336 0 .504-.168.504-.504-.168-5.038-2.246-7.556-6.234-7.556zm1.574 28.147c-5.499 0-9.739-1.427-12.72-4.282-2.939-2.896-4.408-7.136-4.408-12.72 0-5.541 1.323-9.76 3.967-12.657 2.645-2.896 6.465-4.344 11.461-4.344 9.319 0 14.105 5.289 14.357 15.868.042 1.007-.315 1.847-1.071 2.519-.755.671-1.637 1.007-2.644 1.007h-17.191c-.378 0-.525.189-.441.567.294 2.812 1.218 4.869 2.771 6.171 1.595 1.259 3.904 1.889 6.926 1.889 1.889 0 3.988-.315 6.297-.945.756-.21 1.449-.084 2.078.378.672.462 1.008 1.092 1.008 1.889 0 .966-.294 1.826-.882 2.582-.545.714-1.28 1.154-2.204 1.322-2.351.504-4.785.756-7.304.756z"/>
  </g>
</svg>